<svg width="24" height="24" viewBox="0 0 24 24" fill="none" xmlns="http://www.w3.org/2000/svg">
<path fill-rule="evenodd" clip-rule="evenodd" d="M16.5536 8.00007C12.929 8.01528 9.99547 10.4264 9.37233 13.5959C9.28556 13.8713 9.2384 14.1523 9.2384 14.4379C9.2384 14.5623 9.24238 14.6863 9.25017 14.8096L9.25 14.8571C9.25 15.2915 9.29245 15.7165 9.37379 16.1284C9.1683 16.1469 8.96279 16.1533 8.75733 16.1533C7.95546 16.1533 7.27897 16.0114 6.51396 15.8509C6.36122 15.8188 6.20425 15.7859 6.04274 15.7534L3.32808 17.1667L4.10113 14.749C2.15968 13.3445 1 11.5311 1 9.32673C1 5.50445 4.49632 2.5 8.75733 2.5C12.518 2.5 15.8196 4.83327 16.5536 8.00007ZM5.58333 6.99208C6.08959 6.99208 6.5 6.6021 6.5 6.12104C6.5 5.63998 6.08959 5.25 5.58333 5.25C5.07707 5.25 4.66667 5.63998 4.66667 6.12104C4.66667 6.6021 5.07707 6.99208 5.58333 6.99208ZM12 6.12104C12 6.6021 11.5896 6.99208 11.0833 6.99208C10.5771 6.99208 10.1667 6.6021 10.1667 6.12104C10.1667 5.63998 10.5771 5.25 11.0833 5.25C11.5896 5.25 12 5.63998 12 6.12104Z" fill="#222529"/>
<path fill-rule="evenodd" clip-rule="evenodd" d="M16.5875 8.91667C19.9818 8.91667 23 11.6097 23 14.9166C23 16.776 21.8713 18.4341 20.358 19.6799L20.9265 21.75L18.8532 20.5043L18.7798 20.524C18.0513 20.7193 17.3155 20.9165 16.5875 20.9165C12.9925 20.9165 10.1667 18.2326 10.1667 14.9166C10.1667 11.6097 12.9925 8.91667 16.5875 8.91667ZM14.9792 12.4792C14.9792 12.9279 14.6201 13.2917 14.1771 13.2917C13.7341 13.2917 13.375 12.9279 13.375 12.4792C13.375 12.0304 13.7341 11.6667 14.1771 11.6667C14.6201 11.6667 14.9792 12.0304 14.9792 12.4792ZM18.4549 13.2917C18.8978 13.2917 19.2569 12.9279 19.2569 12.4792C19.2569 12.0304 18.8978 11.6667 18.4549 11.6667C18.0119 11.6667 17.6528 12.0304 17.6528 12.4792C17.6528 12.9279 18.0119 13.2917 18.4549 13.2917Z" fill="#222529"/>
</svg>
